<?xml version="1.0" standalone="no"?>
<!DOCTYPE svg PUBLIC "-//W3C//DTD SVG 20010904//EN"
 "http://www.w3.org/TR/2001/REC-SVG-20010904/DTD/svg10.dtd">
<svg version="1.0" xmlns="http://www.w3.org/2000/svg"
 width="512.000000pt" height="512.000000pt" viewBox="0 0 512.000000 512.000000"
 preserveAspectRatio="xMidYMid meet">
<metadata>
Created by potrace 1.14, written by Peter Selinger 2001-2017
</metadata>
<g transform="translate(0.000000,512.000000) scale(0.100000,-0.100000)"
fill="#000000" stroke="none">
<path d="M4450 4543 c-27 -10 -50 -36 -107 -122 -53 -78 -232 -271 -253 -271
-5 0 -20 -10 -34 -22 -13 -13 -41 -32 -63 -43 -21 -10 -45 -24 -53 -31 -17
-14 -156 -74 -179 -77 -9 -1 -22 -6 -29 -11 -8 -5 -64 -18 -125 -31 -123 -25
-331 -32 -422 -14 -27 5 -61 11 -75 13 -14 2 -36 7 -50 10 -14 4 -38 9 -55 11
-16 2 -30 4 -30 5 0 3 -44 10 -105 16 -153 15 -367 5 -485 -23 -16 -4 -34 -7
-40 -8 -31 -3 -167 -47 -179 -57 -6 -4 -20 -8 -32 -8 -13 0 -26 -5 -29 -10 -4
-6 -10 -8 -15 -5 -5 3 -13 -3 -19 -12 -5 -10 -13 -17 -18 -16 -16 4 -53 -9
-53 -20 0 -6 -3 -7 -7 -4 -3 4 -15 0 -25 -10 -10 -9 -18 -13 -18 -9 0 4 -6 2
-12 -4 -7 -5 -49 -33 -93 -61 -44 -28 -81 -55 -83 -60 -2 -5 -8 -9 -13 -9 -34
0 -263 -239 -335 -350 -16 -25 -34 -50 -40 -57 -9 -10 -106 -201 -135 -268
-10 -24 -49 -150 -54 -177 -2 -11 -6 -27 -9 -36 -3 -9 -8 -35 -11 -57 -2 -22
-7 -51 -10 -65 -8 -38 -15 -190 -9 -190 3 0 12 6 19 13 54 48 304 207 325 207
6 0 10 3 10 8 0 4 15 14 32 21 18 8 53 27 78 41 25 15 48 27 52 28 5 1 35 15
68 31 33 16 60 27 60 24 0 -3 6 -1 13 5 22 18 333 132 401 147 6 1 18 5 26 8
16 6 100 26 138 33 13 3 49 11 79 19 31 8 59 12 64 10 4 -3 10 -1 14 4 3 5 13
10 23 10 20 0 97 9 97 11 0 3 31 8 91 14 32 4 75 9 94 11 60 8 150 14 304 21
122 5 156 3 190 -10 84 -32 116 -148 59 -216 -36 -42 -72 -53 -190 -56 -61 -1
-116 -5 -122 -8 -5 -4 -12 -2 -16 4 -4 6 -12 7 -18 3 -7 -4 -30 -8 -52 -9 -52
-2 -150 -11 -200 -19 -35 -5 -118 -17 -210 -31 -16 -3 -37 -7 -45 -9 -8 -2
-26 -6 -40 -9 -14 -3 -42 -10 -62 -15 -21 -5 -38 -7 -38 -4 0 3 -7 0 -15 -7
-8 -7 -15 -10 -15 -7 0 3 -37 -6 -82 -20 -45 -14 -89 -26 -97 -28 -22 -5 -168
-59 -211 -78 -19 -8 -38 -13 -42 -11 -5 3 -8 0 -8 -5 0 -6 -6 -11 -13 -11 -7
0 -38 -12 -68 -27 -30 -15 -56 -27 -59 -28 -6 -1 -129 -66 -152 -80 -9 -5 -36
-21 -60 -34 -93 -50 -302 -200 -417 -297 -68 -58 -259 -251 -316 -319 -32 -38
-62 -71 -67 -73 -4 -2 -8 -10 -8 -17 0 -7 -3 -15 -7 -17 -19 -8 -139 -177
-217 -308 -90 -148 -182 -344 -228 -484 -21 -64 -30 -166 -15 -166 5 0 7 -7 3
-15 -3 -8 -1 -15 4 -15 6 0 10 -6 10 -14 0 -13 37 -55 72 -82 28 -22 90 -36
136 -30 70 8 72 9 72 18 0 4 6 8 13 8 28 0 86 77 103 136 34 123 148 373 205
456 11 14 19 29 19 32 0 15 175 249 225 302 16 18 59 62 94 99 l64 67 18 -23
c10 -13 19 -27 19 -30 0 -16 106 -166 175 -248 28 -33 143 -143 185 -177 19
-16 37 -31 40 -35 9 -11 190 -130 190 -124 0 2 21 -9 46 -25 26 -16 50 -27 54
-25 4 3 13 -2 20 -10 7 -8 18 -15 25 -15 7 0 38 -11 68 -25 31 -13 66 -26 79
-27 13 -2 28 -6 33 -10 18 -11 189 -47 255 -54 78 -8 311 -12 324 -5 6 2 24 6
40 7 17 1 60 7 96 14 80 15 75 14 130 29 25 8 50 14 55 16 6 1 17 5 25 8 8 3
49 17 90 32 41 14 86 31 100 37 14 7 27 12 30 12 19 3 180 82 180 88 0 4 9 8
19 8 11 0 22 4 26 9 3 6 26 20 50 32 25 12 45 26 45 31 0 4 5 8 10 8 12 0 40
19 140 94 67 51 73 56 126 103 81 73 104 96 165 164 106 118 129 146 129 158
0 6 3 11 8 11 4 0 18 17 32 38 14 20 27 39 30 42 35 31 194 324 253 465 22 52
76 201 76 208 0 1 2 9 5 17 10 30 45 156 50 180 3 14 12 56 20 94 19 85 43
251 52 366 17 196 4 534 -26 680 -9 41 -13 69 -25 140 -5 31 -13 65 -15 65 -1
0 -4 14 -6 30 -3 17 -14 57 -25 89 -10 33 -19 63 -19 67 0 4 -5 20 -12 36 -6
15 -10 33 -9 40 1 6 -3 14 -9 18 -5 3 -10 15 -10 26 0 10 -4 19 -8 19 -5 0 -9
6 -9 13 0 19 -46 131 -55 135 -5 2 -8 9 -8 15 0 31 -93 57 -140 40z"/>
</g>
</svg>
